<?xml version="1.0" encoding="iso-8859-1"?>
<svg xmlns="http://www.w3.org/2000/svg" xmlns:xlink="http://www.w3.org/1999/xlink" version="1.1" viewBox="0 0 421.159 421.159" enable-background="new 0 0 421.159 421.159" width="512px" height="512px">
  <g>
    <path d="m.945,96.881c-1.928-3.336-0.781-7.604 2.555-9.532 3.336-1.928 7.604-0.781 9.532,2.55l24.024,41.613c0.36,0.627 0.693,1.029 0.936,1.268 0.243-0.239 0.576-0.646 0.936-1.268l17.678-30.617c1.249-2.157 3.552-3.491 6.046-3.491 2.494,0 4.796,1.329 6.046,3.491l17.678,30.617c0.36,0.627 0.693,1.029 0.936,1.268 0.243-0.239 0.576-0.646 0.936-1.268l17.678-30.617c1.249-2.157 3.552-3.491 6.046-3.491s4.796,1.329 6.046,3.491l17.678,30.617c0.36,0.627 0.693,1.029 0.936,1.268 0.243-0.239 0.576-0.646 0.936-1.268l17.678-30.617c1.249-2.157 3.552-3.491 6.046-3.491 2.494,0 4.796,1.329 6.046,3.491l17.678,30.617c0.36,0.627 0.693,1.029 0.936,1.268 0.243-0.239 0.576-0.646 0.936-1.268l17.678-30.617c1.249-2.157 3.552-3.491 6.041-3.491 2.499,0 4.801,1.329 6.046,3.491l17.674,30.617c0.36,0.627 0.693,1.029 0.936,1.268 0.243-0.239 0.571-0.646 0.931-1.268l17.678-30.617c1.249-2.157 3.552-3.491 6.041-3.491 2.494,0 4.796,1.329 6.046,3.491l17.674,30.617c0.36,0.627 0.693,1.029 0.936,1.268 0.243-0.239 0.576-0.646 0.931-1.268l17.678-30.617c1.249-2.157 3.552-3.491 6.046-3.491 2.489,0 4.792,1.329 6.041,3.491l17.674,30.617c0.36,0.627 0.693,1.029 0.936,1.268 0.243-0.239 0.571-0.646 0.931-1.268l17.678-30.617c1.249-2.157 3.552-3.491 6.041-3.491 2.494,0 4.796,1.329 6.046,3.491l17.674,30.617c0.36,0.627 0.693,1.029 0.936,1.268 0.243-0.239 0.571-0.646 0.931-1.268l24.026-41.612c1.928-3.336 6.191-4.483 9.532-2.55 3.336,1.928 4.478,6.191 2.555,9.532l-24.028,41.613c-3.107,5.386-7.857,8.474-13.018,8.474s-9.911-3.088-13.022-8.474l-11.633-20.149-11.633,20.149c-3.107,5.386-7.857,8.474-13.018,8.474-5.166,0-9.911-3.088-13.022-8.474l-11.628-20.149-11.637,20.149c-3.107,5.386-7.857,8.474-13.018,8.474-5.166,0-9.911-3.088-13.022-8.474l-11.633-20.149-11.633,20.149c-3.107,5.386-7.852,8.474-13.018,8.474-5.166,0-9.911-3.088-13.023-8.474l-11.661-20.149-11.633,20.149c-3.112,5.386-7.857,8.474-13.022,8.474-5.166,0-9.911-3.088-13.023-8.474l-11.633-20.149-11.633,20.149c-3.112,5.386-7.857,8.474-13.023,8.474s-9.911-3.088-13.023-8.474l-11.633-20.149-11.633,20.149c-3.112,5.386-7.857,8.474-13.023,8.474-5.166,0-9.911-3.088-13.022-8.474l-11.633-20.149-11.633,20.149c-3.112,5.386-7.857,8.474-13.022,8.474s-9.911-3.088-13.022-8.474l-24.022-41.614zm416.716,53.063c-3.341-1.928-7.604-0.781-9.532,2.555l-24.028,41.613c-0.36,0.627-0.688,1.029-0.931,1.268-0.243-0.239-0.576-0.646-0.936-1.268l-17.674-30.617c-1.249-2.157-3.552-3.491-6.046-3.491-2.489,0-4.792,1.329-6.041,3.491l-17.678,30.617c-0.36,0.627-0.688,1.029-0.931,1.268-0.243-0.239-0.576-0.646-0.936-1.268l-17.674-30.617c-1.249-2.157-3.552-3.491-6.041-3.491-2.494,0-4.796,1.329-6.046,3.491l-17.678,30.617c-0.356,0.627-0.688,1.029-0.931,1.268-0.243-0.239-0.576-0.646-0.936-1.268l-17.674-30.617c-1.249-2.157-3.552-3.491-6.046-3.491-2.489,0-4.792,1.329-6.041,3.491l-17.678,30.617c-0.36,0.627-0.688,1.029-0.931,1.268-0.243-0.239-0.576-0.646-0.936-1.268l-17.674-30.617c-1.249-2.157-3.552-3.491-6.046-3.491-2.489,0-4.792,1.329-6.041,3.491l-17.678,30.617c-0.36,0.627-0.693,1.029-0.936,1.268-0.243-0.239-0.576-0.646-0.936-1.268l-17.678-30.617c-1.249-2.157-3.552-3.491-6.046-3.491-2.494,0-4.796,1.329-6.046,3.491l-17.678,30.617c-0.36,0.627-0.693,1.029-0.936,1.268-0.243-0.239-0.576-0.646-0.936-1.268l-17.678-30.617c-1.245-2.157-3.552-3.491-6.046-3.491s-4.796,1.329-6.046,3.491l-17.678,30.617c-0.36,0.627-0.693,1.029-0.936,1.268-0.243-0.239-0.576-0.646-0.936-1.268l-17.678-30.617c-1.245-2.157-3.552-3.491-6.046-3.491-2.494,0-4.796,1.329-6.046,3.491l-17.678,30.617c-0.36,0.627-0.693,1.029-0.936,1.268-0.243-0.239-0.576-0.646-0.936-1.268l-24.024-41.613c-1.928-3.336-6.191-4.483-9.532-2.555-3.336,1.928-4.483,6.195-2.555,9.532l24.024,41.613c3.112,5.386 7.857,8.474 13.022,8.474s9.911-3.088 13.022-8.474l11.633-20.149 11.633,20.149c3.112,5.386 7.857,8.474 13.022,8.474 5.166,0 9.911-3.088 13.023-8.474l11.633-20.149 11.633,20.149c3.112,5.386 7.857,8.474 13.022,8.474 5.166,0 9.911-3.088 13.023-8.474l11.633-20.149 11.633,20.149c3.112,5.386 7.857,8.474 13.023,8.474s9.911-3.088 13.023-8.474l11.642-20.154 11.637,20.149c3.112,5.386 7.861,8.474 13.023,8.474 5.166,0 9.911-3.088 13.018-8.474l11.633-20.149 11.633,20.149c3.112,5.386 7.857,8.474 13.022,8.474s9.911-3.088 13.018-8.474l11.637-20.149 11.628,20.149c3.112,5.386 7.857,8.474 13.022,8.474s9.911-3.088 13.018-8.474l11.633-20.149 11.633,20.149c3.112,5.386 7.861,8.474 13.022,8.474s9.911-3.088 13.018-8.474l24.028-41.613c1.938-3.336 0.796-7.603-2.54-9.527zm0,62.591c-3.341-1.928-7.609-0.786-9.532,2.555l-24.028,41.613c-0.36,0.627-0.688,1.029-0.931,1.268-0.243-0.243-0.576-0.646-0.936-1.268l-17.674-30.617c-1.249-2.162-3.552-3.491-6.046-3.491-2.489,0-4.792,1.329-6.041,3.491l-17.678,30.617c-0.36,0.627-0.688,1.029-0.931,1.268-0.243-0.243-0.576-0.646-0.936-1.268l-17.674-30.617c-1.249-2.162-3.552-3.491-6.041-3.491-2.494,0-4.796,1.329-6.046,3.491l-17.678,30.617c-0.356,0.627-0.688,1.029-0.931,1.268-0.243-0.243-0.576-0.646-0.936-1.268l-17.674-30.617c-1.249-2.162-3.552-3.491-6.046-3.491-2.489,0-4.792,1.329-6.041,3.491l-17.678,30.617c-0.36,0.627-0.688,1.029-0.931,1.268-0.243-0.243-0.576-0.646-0.936-1.268l-17.674-30.617c-1.249-2.162-3.552-3.491-6.046-3.491-2.489,0-4.792,1.329-6.041,3.491l-17.678,30.617c-0.36,0.627-0.693,1.029-0.936,1.268-0.243-0.243-0.576-0.646-0.936-1.268l-17.678-30.617c-1.249-2.162-3.552-3.491-6.046-3.491-2.494,0-4.796,1.329-6.046,3.491l-17.678,30.617c-0.36,0.627-0.693,1.029-0.936,1.268-0.243-0.243-0.576-0.646-0.936-1.268l-17.678-30.617c-1.245-2.162-3.552-3.491-6.046-3.491s-4.796,1.329-6.046,3.491l-17.678,30.617c-0.36,0.627-0.693,1.029-0.936,1.268-0.243-0.243-0.576-0.646-0.936-1.268l-17.678-30.617c-1.245-2.162-3.547-3.491-6.046-3.491-2.494,0-4.796,1.329-6.046,3.491l-17.678,30.617c-0.36,0.627-0.693,1.029-0.936,1.268-0.243-0.243-0.576-0.646-0.936-1.268l-24.022-41.613c-1.928-3.336-6.191-4.478-9.532-2.555-3.327,1.928-4.473,6.195-2.546,9.532l24.024,41.613c3.112,5.381 7.857,8.474 13.022,8.474s9.911-3.088 13.022-8.474l11.633-20.154 11.633,20.154c3.112,5.381 7.857,8.474 13.022,8.474s9.911-3.088 13.022-8.474l11.633-20.154 11.633,20.154c3.112,5.381 7.857,8.474 13.022,8.474s9.911-3.088 13.023-8.474l11.633-20.154 11.633,20.154c3.112,5.381 7.857,8.474 13.023,8.474s9.911-3.088 13.023-8.474l11.633-20.154 11.637,20.154c3.112,5.381 7.861,8.474 13.023,8.474s9.911-3.088 13.018-8.474l11.633-20.154 11.633,20.154c3.112,5.381 7.857,8.474 13.022,8.474s9.911-3.088 13.018-8.474l11.637-20.154 11.628,20.154c3.112,5.381 7.857,8.474 13.022,8.474s9.911-3.088 13.018-8.474l11.633-20.154 11.633,20.154c3.112,5.381 7.861,8.474 13.022,8.474s9.911-3.088 13.018-8.474l24.028-41.613c1.937-3.342 0.795-7.609-2.541-9.532zm0,62.59c-3.341-1.928-7.604-0.781-9.532,2.555l-24.028,41.613c-0.36,0.627-0.688,1.029-0.931,1.268-0.243-0.243-0.576-0.646-0.936-1.268l-17.674-30.617c-1.249-2.162-3.552-3.491-6.046-3.491-2.489,0-4.792,1.329-6.041,3.491l-17.678,30.617c-0.36,0.627-0.688,1.029-0.931,1.268-0.243-0.243-0.576-0.646-0.936-1.268l-17.674-30.617c-1.249-2.162-3.552-3.491-6.041-3.491-2.494,0-4.796,1.329-6.046,3.491l-17.678,30.617c-0.356,0.627-0.688,1.029-0.931,1.268-0.243-0.243-0.576-0.646-0.936-1.268l-17.674-30.617c-1.249-2.162-3.552-3.491-6.046-3.491-2.489,0-4.792,1.329-6.041,3.491l-17.678,30.617c-0.36,0.627-0.688,1.029-0.931,1.268-0.243-0.243-0.576-0.646-0.936-1.268l-17.674-30.617c-1.249-2.162-3.552-3.491-6.046-3.491-2.489,0-4.792,1.329-6.041,3.491l-17.678,30.617c-0.36,0.627-0.693,1.029-0.936,1.268-0.243-0.243-0.576-0.646-0.936-1.268l-17.678-30.617c-1.249-2.162-3.552-3.491-6.046-3.491-2.494,0-4.796,1.329-6.046,3.491l-17.678,30.617c-0.36,0.627-0.693,1.029-0.936,1.268-0.243-0.243-0.576-0.646-0.936-1.268l-17.678-30.617c-1.245-2.162-3.552-3.491-6.046-3.491s-4.796,1.329-6.046,3.491l-17.678,30.617c-0.36,0.627-0.693,1.029-0.936,1.268-0.243-0.243-0.576-0.646-0.936-1.268l-17.678-30.617c-1.245-2.162-3.547-3.491-6.046-3.491-2.494,0-4.796,1.329-6.046,3.491l-17.678,30.617c-0.36,0.627-0.693,1.029-0.936,1.268-0.243-0.243-0.576-0.646-0.936-1.268l-24.013-41.613c-1.928-3.336-6.191-4.478-9.532-2.555-3.336,1.928-4.483,6.195-2.555,9.532l24.024,41.613c3.112,5.386 7.857,8.479 13.022,8.479s9.911-3.093 13.022-8.479l11.633-20.154 11.633,20.154c3.112,5.386 7.857,8.479 13.022,8.479 5.166,0 9.911-3.093 13.022-8.479l11.633-20.154 11.633,20.154c3.112,5.386 7.857,8.479 13.022,8.479s9.911-3.093 13.023-8.479l11.633-20.154 11.633,20.154c3.112,5.386 7.857,8.479 13.023,8.479s9.911-3.093 13.023-8.479l11.633-20.154 11.637,20.154c3.112,5.386 7.861,8.479 13.023,8.479 5.166,0 9.911-3.093 13.018-8.479l11.633-20.154 11.633,20.154c3.112,5.386 7.861,8.479 13.022,8.479 5.166,0 9.911-3.093 13.018-8.479l11.637-20.154 11.628,20.154c3.112,5.386 7.857,8.479 13.022,8.479s9.911-3.093 13.018-8.479l11.633-20.154 11.633,20.154c3.112,5.386 7.861,8.479 13.022,8.479s9.911-3.093 13.018-8.479l24.028-41.613c1.937-3.337 0.795-7.604-2.541-9.532z" fill="#FFFFFF"/>
  </g>
</svg>
